<svg width="21" height="20" viewBox="0 0 21 20" fill="none" xmlns="http://www.w3.org/2000/svg">
<path d="M10.5 14.1562C12.7954 14.1562 14.6562 12.2954 14.6562 10C14.6562 7.70457 12.7954 5.84375 10.5 5.84375C8.20457 5.84375 6.34375 7.70457 6.34375 10C6.34375 12.2954 8.20457 14.1562 10.5 14.1562Z" stroke="#D6D6DD" stroke-width="2" stroke-miterlimit="10"/>
<path d="M14.7595 1.09375H6.24049C3.67417 1.09375 1.59375 3.17417 1.59375 5.74049V14.2595C1.59375 16.8258 3.67417 18.9062 6.24049 18.9062H14.7595C17.3258 18.9062 19.4062 16.8258 19.4062 14.2595V5.74049C19.4062 3.17417 17.3258 1.09375 14.7595 1.09375Z" stroke="#D6D6DD" stroke-width="2" stroke-linecap="round" stroke-linejoin="round"/>
<path d="M15.5469 5.84375C16.0388 5.84375 16.4375 5.445 16.4375 4.95312C16.4375 4.46125 16.0388 4.0625 15.5469 4.0625C15.055 4.0625 14.6562 4.46125 14.6562 4.95312C14.6562 5.445 15.055 5.84375 15.5469 5.84375Z" fill="#D6D6DD"/>
</svg>
