<svg width="21" height="20" viewBox="0 0 21 20" fill="none" xmlns="http://www.w3.org/2000/svg">
<path d="M10.5 13.75C13.9518 13.75 16.75 10.9518 16.75 7.5C16.75 4.04822 13.9518 1.25 10.5 1.25C7.04822 1.25 4.25 4.04822 4.25 7.5C4.25 10.9518 7.04822 13.75 10.5 13.75Z" stroke="#313253" stroke-linecap="round" stroke-linejoin="round"/>
<path d="M10.5 11.25C12.5711 11.25 14.25 9.57107 14.25 7.5C14.25 5.42893 12.5711 3.75 10.5 3.75C8.42893 3.75 6.75 5.42893 6.75 7.5C6.75 9.57107 8.42893 11.25 10.5 11.25Z" stroke="#313253" stroke-linecap="round" stroke-linejoin="round"/>
<path d="M14.25 12.5V18.75L10.5 16.875L6.75 18.75V12.5" stroke="#313253" stroke-linecap="round" stroke-linejoin="round"/>
</svg>
